<mxfile host="65bd71144e">
    <diagram id="NZ2GZO0A2a-neuPCKBlh" name="Page-1">
        <mxGraphModel dx="820" dy="1370" grid="1" gridSize="10" guides="1" tooltips="1" connect="1" arrows="1" fold="1" page="1" pageScale="1" pageWidth="850" pageHeight="1100" math="0" shadow="0">
            <root>
                <mxCell id="0"/>
                <mxCell id="1" parent="0"/>
                <mxCell id="2" value="" style="rounded=0;whiteSpace=wrap;html=1;" parent="1" vertex="1">
                    <mxGeometry x="40.5" y="-40" width="770" height="430" as="geometry"/>
                </mxCell>
                <mxCell id="5" value="" style="rounded=0;whiteSpace=wrap;html=1;" parent="1" vertex="1">
                    <mxGeometry x="323" y="30" width="205" height="360" as="geometry"/>
                </mxCell>
                <mxCell id="4" value="" style="rounded=0;whiteSpace=wrap;html=1;" parent="1" vertex="1">
                    <mxGeometry x="40" y="-40" width="770" height="70" as="geometry"/>
                </mxCell>
                <mxCell id="3" value="" style="shape=image;html=1;verticalLabelPosition=bottom;verticalAlign=top;imageAspect=1;aspect=fixed;image=https://media.discordapp.net/attachments/910885868733087747/1046480288655626380/Immune.png;fontSize=10;" parent="1" vertex="1">
                    <mxGeometry x="50" y="-31" width="50" height="50" as="geometry"/>
                </mxCell>
                <mxCell id="6" value="COUGHING" style="text;html=1;strokeColor=none;fillColor=none;align=center;verticalAlign=middle;whiteSpace=wrap;rounded=0;fontSize=24;fontStyle=1" parent="1" vertex="1">
                    <mxGeometry x="395.5" y="100" width="60" height="26" as="geometry"/>
                </mxCell>
                <mxCell id="7" value="Are YOU ...?" style="text;strokeColor=none;fillColor=none;html=1;fontSize=14;fontStyle=1;verticalAlign=middle;align=center;" parent="1" vertex="1">
                    <mxGeometry x="375.5" y="60" width="100" height="40" as="geometry"/>
                </mxCell>
                <mxCell id="9" value="" style="shape=image;html=1;verticalLabelPosition=bottom;verticalAlign=top;imageAspect=1;aspect=fixed;image=img/clipart/Gear_128x128.png" parent="1" vertex="1">
                    <mxGeometry x="381.16999999999996" y="140" width="88.66" height="104" as="geometry"/>
                </mxCell>
                <mxCell id="10" value="No" style="rounded=1;html=1;shadow=0;dashed=0;whiteSpace=wrap;fontSize=10;fillColor=#a20025;align=center;strokeColor=#6F0000;fontColor=#ffffff;" parent="1" vertex="1">
                    <mxGeometry x="441" y="261" width="75.5" height="16.88" as="geometry"/>
                </mxCell>
                <mxCell id="11" value="Yes" style="rounded=1;html=1;shadow=0;dashed=0;whiteSpace=wrap;fontSize=10;fillColor=#60a917;align=center;strokeColor=#2D7600;fontColor=#ffffff;" parent="1" vertex="1">
                    <mxGeometry x="333.5" y="261" width="75.5" height="16.88" as="geometry"/>
                </mxCell>
                <mxCell id="12" value="Immune&lt;br&gt;&lt;div&gt;&lt;span style=&quot;font-size: 10px ; font-weight: normal&quot;&gt;Goodbye Illness, Hello Health&lt;/span&gt;&lt;/div&gt;" style="text;strokeColor=none;fillColor=none;html=1;fontSize=14;fontStyle=1;verticalAlign=middle;align=left;" parent="1" vertex="1">
                    <mxGeometry x="100" y="-26" width="100" height="40" as="geometry"/>
                </mxCell>
                <mxCell id="13" value="&amp;lt; Back" style="text;html=1;strokeColor=none;fillColor=none;align=center;verticalAlign=middle;whiteSpace=wrap;rounded=0;fontSize=10;" parent="1" vertex="1">
                    <mxGeometry x="323" y="30" width="47" height="30" as="geometry"/>
                </mxCell>
                <mxCell id="15" value="" style="rounded=0;whiteSpace=wrap;html=1;" parent="1" vertex="1">
                    <mxGeometry x="40.5" y="440" width="770" height="430" as="geometry"/>
                </mxCell>
                <mxCell id="16" value="" style="rounded=0;whiteSpace=wrap;html=1;" parent="1" vertex="1">
                    <mxGeometry x="323" y="510" width="205" height="360" as="geometry"/>
                </mxCell>
                <mxCell id="17" value="" style="rounded=0;whiteSpace=wrap;html=1;" parent="1" vertex="1">
                    <mxGeometry x="40" y="440" width="770" height="70" as="geometry"/>
                </mxCell>
                <mxCell id="18" value="" style="shape=image;html=1;verticalLabelPosition=bottom;verticalAlign=top;imageAspect=1;aspect=fixed;image=https://media.discordapp.net/attachments/910885868733087747/1046480288655626380/Immune.png;fontSize=10;" parent="1" vertex="1">
                    <mxGeometry x="50" y="449" width="50" height="50" as="geometry"/>
                </mxCell>
                <mxCell id="19" value="COUGHING" style="text;html=1;strokeColor=none;fillColor=none;align=center;verticalAlign=middle;whiteSpace=wrap;rounded=0;fontSize=24;fontStyle=1" parent="1" vertex="1">
                    <mxGeometry x="395.5" y="580" width="60" height="26" as="geometry"/>
                </mxCell>
                <mxCell id="20" value="Are YOU ...?" style="text;strokeColor=none;fillColor=none;html=1;fontSize=14;fontStyle=1;verticalAlign=middle;align=center;" parent="1" vertex="1">
                    <mxGeometry x="375.5" y="540" width="100" height="40" as="geometry"/>
                </mxCell>
                <mxCell id="21" value="" style="shape=image;html=1;verticalLabelPosition=bottom;verticalAlign=top;imageAspect=1;aspect=fixed;image=img/clipart/Gear_128x128.png" parent="1" vertex="1">
                    <mxGeometry x="381.16999999999996" y="620" width="88.66" height="104" as="geometry"/>
                </mxCell>
                <mxCell id="23" value="Submit" style="rounded=1;html=1;shadow=0;dashed=0;whiteSpace=wrap;fontSize=10;fillColor=#60a917;align=center;strokeColor=#2D7600;fontColor=#ffffff;" parent="1" vertex="1">
                    <mxGeometry x="333.5" y="741" width="186.5" height="16.88" as="geometry"/>
                </mxCell>
                <mxCell id="24" value="Immune&lt;br&gt;&lt;div&gt;&lt;span style=&quot;font-size: 10px ; font-weight: normal&quot;&gt;Goodbye Illness, Hello Health&lt;/span&gt;&lt;/div&gt;" style="text;strokeColor=none;fillColor=none;html=1;fontSize=14;fontStyle=1;verticalAlign=middle;align=left;" parent="1" vertex="1">
                    <mxGeometry x="100" y="454" width="100" height="40" as="geometry"/>
                </mxCell>
                <mxCell id="25" value="&amp;lt; Back" style="text;html=1;strokeColor=none;fillColor=none;align=center;verticalAlign=middle;whiteSpace=wrap;rounded=0;fontSize=10;" parent="1" vertex="1">
                    <mxGeometry x="323" y="510" width="47" height="30" as="geometry"/>
                </mxCell>
                <mxCell id="26" value="" style="rounded=0;whiteSpace=wrap;html=1;" parent="1" vertex="1">
                    <mxGeometry x="40" y="-520" width="770" height="430" as="geometry"/>
                </mxCell>
                <mxCell id="27" value="" style="rounded=0;whiteSpace=wrap;html=1;" parent="1" vertex="1">
                    <mxGeometry x="322.5" y="-450" width="205" height="360" as="geometry"/>
                </mxCell>
                <mxCell id="28" value="" style="rounded=0;whiteSpace=wrap;html=1;" parent="1" vertex="1">
                    <mxGeometry x="39.5" y="-520" width="770" height="70" as="geometry"/>
                </mxCell>
                <mxCell id="29" value="" style="shape=image;html=1;verticalLabelPosition=bottom;verticalAlign=top;imageAspect=1;aspect=fixed;image=https://media.discordapp.net/attachments/910885868733087747/1046480288655626380/Immune.png;fontSize=10;" parent="1" vertex="1">
                    <mxGeometry x="49.5" y="-511" width="50" height="50" as="geometry"/>
                </mxCell>
                <mxCell id="30" value="COUGHING" style="text;html=1;strokeColor=none;fillColor=none;align=center;verticalAlign=middle;whiteSpace=wrap;rounded=0;fontSize=24;fontStyle=1" parent="1" vertex="1">
                    <mxGeometry x="395" y="-380" width="60" height="26" as="geometry"/>
                </mxCell>
                <mxCell id="31" value="Are YOU ...?" style="text;strokeColor=none;fillColor=none;html=1;fontSize=14;fontStyle=1;verticalAlign=middle;align=center;" parent="1" vertex="1">
                    <mxGeometry x="375" y="-420" width="100" height="40" as="geometry"/>
                </mxCell>
                <mxCell id="32" value="" style="shape=image;html=1;verticalLabelPosition=bottom;verticalAlign=top;imageAspect=1;aspect=fixed;image=img/clipart/Gear_128x128.png" parent="1" vertex="1">
                    <mxGeometry x="380.66999999999996" y="-340" width="88.66" height="104" as="geometry"/>
                </mxCell>
                <mxCell id="33" value="No" style="rounded=1;html=1;shadow=0;dashed=0;whiteSpace=wrap;fontSize=10;fillColor=#a20025;align=center;strokeColor=#6F0000;fontColor=#ffffff;" parent="1" vertex="1">
                    <mxGeometry x="440.5" y="-219" width="75.5" height="16.88" as="geometry"/>
                </mxCell>
                <mxCell id="34" value="Yes" style="rounded=1;html=1;shadow=0;dashed=0;whiteSpace=wrap;fontSize=10;fillColor=#60a917;align=center;strokeColor=#2D7600;fontColor=#ffffff;" parent="1" vertex="1">
                    <mxGeometry x="333" y="-219" width="75.5" height="16.88" as="geometry"/>
                </mxCell>
                <mxCell id="35" value="Immune&lt;br&gt;&lt;div&gt;&lt;span style=&quot;font-size: 10px ; font-weight: normal&quot;&gt;Goodbye Illness, Hello Health&lt;/span&gt;&lt;/div&gt;" style="text;strokeColor=none;fillColor=none;html=1;fontSize=14;fontStyle=1;verticalAlign=middle;align=left;" parent="1" vertex="1">
                    <mxGeometry x="99.5" y="-506" width="100" height="40" as="geometry"/>
                </mxCell>
                <mxCell id="36" value="Illness" style="text;html=1;strokeColor=none;fillColor=none;align=center;verticalAlign=middle;whiteSpace=wrap;rounded=0;" vertex="1" parent="1">
                    <mxGeometry x="588" y="-501" width="60" height="30" as="geometry"/>
                </mxCell>
                <mxCell id="37" value="Test" style="text;html=1;strokeColor=none;fillColor=none;align=center;verticalAlign=middle;whiteSpace=wrap;rounded=0;" vertex="1" parent="1">
                    <mxGeometry x="636" y="-500" width="60" height="30" as="geometry"/>
                </mxCell>
                <mxCell id="38" value="Logout" style="text;html=1;strokeColor=none;fillColor=none;align=center;verticalAlign=middle;whiteSpace=wrap;rounded=0;" vertex="1" parent="1">
                    <mxGeometry x="730" y="-500" width="60" height="30" as="geometry"/>
                </mxCell>
                <mxCell id="41" value="History" style="text;html=1;strokeColor=none;fillColor=none;align=center;verticalAlign=middle;whiteSpace=wrap;rounded=0;" vertex="1" parent="1">
                    <mxGeometry x="683" y="-500" width="60" height="30" as="geometry"/>
                </mxCell>
                <mxCell id="42" value="Home" style="text;html=1;strokeColor=none;fillColor=none;align=center;verticalAlign=middle;whiteSpace=wrap;rounded=0;" vertex="1" parent="1">
                    <mxGeometry x="545" y="-501" width="60" height="30" as="geometry"/>
                </mxCell>
                <mxCell id="48" value="Illness" style="text;html=1;strokeColor=none;fillColor=none;align=center;verticalAlign=middle;whiteSpace=wrap;rounded=0;" vertex="1" parent="1">
                    <mxGeometry x="588" y="-21.5" width="60" height="30" as="geometry"/>
                </mxCell>
                <mxCell id="49" value="Test" style="text;html=1;strokeColor=none;fillColor=none;align=center;verticalAlign=middle;whiteSpace=wrap;rounded=0;" vertex="1" parent="1">
                    <mxGeometry x="636" y="-20.5" width="60" height="30" as="geometry"/>
                </mxCell>
                <mxCell id="50" value="Logout" style="text;html=1;strokeColor=none;fillColor=none;align=center;verticalAlign=middle;whiteSpace=wrap;rounded=0;" vertex="1" parent="1">
                    <mxGeometry x="730" y="-20.5" width="60" height="30" as="geometry"/>
                </mxCell>
                <mxCell id="51" value="History" style="text;html=1;strokeColor=none;fillColor=none;align=center;verticalAlign=middle;whiteSpace=wrap;rounded=0;" vertex="1" parent="1">
                    <mxGeometry x="683" y="-20.5" width="60" height="30" as="geometry"/>
                </mxCell>
                <mxCell id="52" value="Home" style="text;html=1;strokeColor=none;fillColor=none;align=center;verticalAlign=middle;whiteSpace=wrap;rounded=0;" vertex="1" parent="1">
                    <mxGeometry x="545" y="-21.5" width="60" height="30" as="geometry"/>
                </mxCell>
                <mxCell id="53" value="Illness" style="text;html=1;strokeColor=none;fillColor=none;align=center;verticalAlign=middle;whiteSpace=wrap;rounded=0;" vertex="1" parent="1">
                    <mxGeometry x="586.5" y="458.5" width="60" height="30" as="geometry"/>
                </mxCell>
                <mxCell id="54" value="Test" style="text;html=1;strokeColor=none;fillColor=none;align=center;verticalAlign=middle;whiteSpace=wrap;rounded=0;" vertex="1" parent="1">
                    <mxGeometry x="634.5" y="459.5" width="60" height="30" as="geometry"/>
                </mxCell>
                <mxCell id="55" value="Logout" style="text;html=1;strokeColor=none;fillColor=none;align=center;verticalAlign=middle;whiteSpace=wrap;rounded=0;" vertex="1" parent="1">
                    <mxGeometry x="728.5" y="459.5" width="60" height="30" as="geometry"/>
                </mxCell>
                <mxCell id="56" value="History" style="text;html=1;strokeColor=none;fillColor=none;align=center;verticalAlign=middle;whiteSpace=wrap;rounded=0;" vertex="1" parent="1">
                    <mxGeometry x="681.5" y="459.5" width="60" height="30" as="geometry"/>
                </mxCell>
                <mxCell id="57" value="Home" style="text;html=1;strokeColor=none;fillColor=none;align=center;verticalAlign=middle;whiteSpace=wrap;rounded=0;" vertex="1" parent="1">
                    <mxGeometry x="543.5" y="458.5" width="60" height="30" as="geometry"/>
                </mxCell>
            </root>
        </mxGraphModel>
    </diagram>
</mxfile>
